:SAMPLES-PER-SECOND 30
:FULLY-SPECIFIED
:DEGREES
261
root  -6.13684 28.4886 -1.31693 -63.3181 -66.4464 30.1575
RightUpLeg  -5.70014 -15.4227 -50.3566
RightLeg  83.9761 1.12196 11.5834
RightFoot  -32.7375 0.572835 4.21103
RightToes  -1.16417e-010 0 -3.6325e-017
Spine  99.8841 3.25102 -13.1573
Spine1  21.581 -17.9702 2.38894
HEad  11.1131 -4.09653 -14.4565
LeftShoulder1  1.24936 -5.3767 -6.3774
LeftArm  -35.9828 -50.3232 -12.1472
LeftForeArm  16.0576 -4.40655 1.23394
LeftHand  -0.0634224 10.093 -0.2131
RightShoulder  0.155952 -2.76341 14.858
RightArm  -7.7228 15.9585 58.2925
RightForeArm  176.961 61.9144 162.144
RightHand  -0.0831294 -0.0496898 -1.81142
LeftUpLeg  -16.3131 -9.80466 -17.458
LeftLeg  80.8256 0.512686 6.14148
LeftFoot  -26.4294 0.0734023 -0.64562
LeftToes  1.47335e-010 -1.29615e-010 3.08757e-011
262
root  -6.04394 28.983 -1.3706 -66.5071 -66.2465 29.1056
RightUpLeg  -0.729193 -12.7866 -50.9684
RightLeg  81.1607 1.68124 11.4365
RightFoot  -31.7702 0.520485 4.08771
RightToes  -1.16417e-010 0 -3.6325e-017
Spine  101.726 2.96732 -12.7062
Spine1  24.0359 -17.6085 0.856677
HEad  6.87726 -5.69761 -12.6179
LeftShoulder1  1.24316 -5.68122 -5.76929
LeftArm  -35.3939 -50.755 -14.0098
LeftForeArm  16.5694 -5.14229 1.26699
LeftHand  -0.0651611 9.04764 -0.459942
RightShoulder  0.0747148 -3.14292 15.1619
RightArm  -7.14476 16.0754 57.9037
RightForeArm  176.768 62.0467 162.029
RightHand  -0.068968 -0.33372 -1.55491
LeftUpLeg  -10.3488 -8.90194 -18.1705
LeftLeg  77.9917 0.793254 5.98691
LeftFoot  -25.4381 0.0951221 -0.4667
LeftToes  1.47335e-010 -1.29615e-010 3.08757e-011
263
root  -6.2113 29.5476 -1.40074 -64.5842 -65.8735 29.4639
RightUpLeg  -0.86644 -14.9257 -51.0106
RightLeg  79.115 2.10962 11.5178
RightFoot  -31.0168 0.482127 3.99758
RightToes  -1.16417e-010 0 -3.6325e-017
Spine  98.4365 2.52087 -13.2062
Spine1  24.8179 -17.4474 0.629687
HEad  2.75695 -6.72234 -10.6776
LeftShoulder1  1.35608 -5.8529 -6.847
LeftArm  -34.4605 -51.2551 -13.684
LeftForeArm  17.5378 -5.3992 0.418017
LeftHand  -0.0678327 9.08368 -0.545184
RightShoulder  0.113708 -2.96904 15.3634
RightArm  -6.15678 15.9375 58.1714
RightForeArm  176.259 62.6656 161.523
RightHand  -0.0681852 -0.304616 -1.53315
LeftUpLeg  -11.119 -9.3025 -18.0289
LeftLeg  75.6311 0.989359 5.7203
LeftFoot  -24.4595 0.127502 -0.166556
LeftToes  1.47335e-010 -1.29615e-010 3.08757e-011
264
root  -6.17214 29.9938 -1.54128 -71.2227 -65.4397 34.5721
RightUpLeg  -0.121063 -12.374 -51.7082
RightLeg  77.2845 2.41173 11.1058
RightFoot  -30.2661 0.479963 4.11398
RightToes  -1.16417e-010 0 -3.6325e-017
Spine  98.8492 4.12854 -14.323
Spine1  25.3469 -17.5264 -0.0191884
HEad  -2.00154 -7.32293 -8.37988
LeftShoulder1  1.47966 -5.96891 -8.11921
LeftArm  -33.3154 -51.3131 -13.9707
LeftForeArm  18.2654 -6.32751 -0.394705
LeftHand  -0.0682892 9.51203 -0.440617
RightShoulder  0.104695 -3.01462 15.5765
RightArm  -4.76093 16.0294 58.6594
RightForeArm  176.353 63.4073 160.959
RightHand  -0.0714353 -0.20102 -1.5714
LeftUpLeg  -7.87532 -6.94099 -19.2573
LeftLeg  72.5052 1.27845 5.57393
LeftFoot  -23.2388 0.146411 0.0620506
LeftToes  1.47335e-010 -1.29615e-010 3.08757e-011
265
root  -6.16387 30.4061 -1.622 -68.9991 -65.4838 35.6447
RightUpLeg  -2.33928 -14.6152 -50.5454
RightLeg  76.082 2.51778 10.4734
RightFoot  -29.4369 0.459522 4.14102
RightToes  -1.16417e-010 0 -3.6325e-017
Spine  96.145 3.4758 -14.5554
Spine1  23.6078 -17.791 0.907955
HEad  -7.24651 -7.42221 -5.34596
LeftShoulder1  1.50008 -5.87943 -8.52476
LeftArm  -31.4918 -50.7399 -16.895
LeftForeArm  18.9226 -7.00537 -0.602418
LeftHand  -0.0558199 8.97631 -0.164095
RightShoulder  0.134906 -2.88934 16.0454
RightArm  -3.52522 15.8512 58.2407
RightForeArm  175.367 64.023 160.363
RightHand  -0.12444 -0.10652 -2.75734
LeftUpLeg  -10.4328 -7.6807 -18.8067
LeftLeg  70.7295 1.44973 5.53167
LeftFoot  -22.1206 0.128167 -0.0478277
LeftToes  1.47335e-010 -1.29615e-010 3.08757e-011
266
root  -6.24643 30.9038 -1.69232 -65.9211 -65.6445 35.8637
RightUpLeg  -4.03435 -17.3094 -49.3491
RightLeg  74.5366 2.71089 9.96983
RightFoot  -28.6525 0.429939 4.09962
RightToes  -1.16417e-010 0 -3.6325e-017
Spine  92.7199 3.17113 -14.8294
Spine1  22.9403 -17.5565 1.8444
HEad  -10.5948 -9.38696 -3.75803
LeftShoulder1  1.53861 -6.0437 -8.67352
LeftArm  -29.9427 -49.9699 -19.475
LeftForeArm  19.1211 -7.46402 -0.714861
LeftHand  -0.0226442 7.89875 0.769248
RightShoulder  0.117416 -2.97227 16.3258
RightArm  -2.61375 15.7675 58.0197
RightForeArm  174.986 64.6484 159.787
RightHand  -0.109265 0.295652 -2.26785
LeftUpLeg  -12.603 -8.72295 -18.1212
LeftLeg  68.6435 1.63755 5.42324
LeftFoot  -21.0851 0.117044 -0.11384
LeftToes  1.47335e-010 -1.29615e-010 3.08757e-011
267
root  -6.65328 31.6845 -1.75728 -73.051 -69.8863 50.2584
RightUpLeg  -12.4193 -16.3393 -42.2378
RightLeg  71.5541 2.6831 8.36792
RightFoot  -26.9428 0.393888 4.22792
RightToes  -1.16417e-010 0 -3.6325e-017
Spine  85.5078 5.74783 -16.7229
Spine1  20.4791 -14.6732 1.30653
HEad  -9.46376 -14.0448 -3.76497
LeftShoulder1  1.60877 -5.46817 -10.7155
LeftArm  -28.0697 -48.9665 -21.2745
LeftForeArm  19.5399 -8.26223 -1.34515
LeftHand  -0.00328191 8.99136 1.41186
RightShoulder  0.274212 -2.28089 16.0852
RightArm  -1.38502 14.9746 58.2334
RightForeArm  173.146 65.7823 158.569
RightHand  -0.144118 0.198094 -3.01964
LeftUpLeg  -17.7245 -4.56594 -14.6806
LeftLeg  65.6023 1.85479 5.19002
LeftFoot  -20.5199 0.102498 -0.255949
LeftToes  1.47335e-010 -1.29615e-010 3.08757e-011
